<svg width="376" height="333" viewBox="0 0 376 333" fill="none" xmlns="http://www.w3.org/2000/svg">
<path fill-rule="evenodd" clip-rule="evenodd" d="M5.81424 8.98956C13.7652 -0.551581 27.9453 -1.84068 37.4865 6.11026L127.438 81.0703C132.889 85.6124 135.876 92.4605 135.498 99.5456C135.119 106.631 131.42 113.121 125.516 117.057L35.5641 177.025C25.2302 183.914 11.2681 181.122 4.37885 170.788C-2.5104 160.454 0.28202 146.492 10.6159 139.603L75.5086 96.341L8.69353 40.6618C-0.847606 32.7108 -2.13671 18.5307 5.81424 8.98956ZM285.449 143.319C310.289 143.319 330.425 123.182 330.425 98.3426C330.425 73.503 310.289 53.3666 285.449 53.3666C260.61 53.3666 240.473 73.503 240.473 98.3426C240.473 123.182 260.61 143.319 285.449 143.319ZM285.449 188.295C335.128 188.295 375.401 148.022 375.401 98.3426C375.401 48.6635 335.128 8.39061 285.449 8.39061C235.77 8.39061 195.497 48.6635 195.497 98.3426C195.497 148.022 235.77 188.295 285.449 188.295ZM100.134 248.621C92.0514 239.191 77.8547 238.099 68.4249 246.182C58.9951 254.264 57.9031 268.461 65.9858 277.891C83.3428 298.141 114.971 322.682 154.71 329.975C196.258 337.6 243.18 325.683 286.939 278.558C295.39 269.457 294.863 255.228 285.762 246.777C276.661 238.326 262.432 238.853 253.981 247.954C219.782 284.784 187.995 290.357 162.829 285.738C135.854 280.788 112.761 263.352 100.134 248.621Z" fill="white"/>
</svg>
